<svg width="20" height="21" viewBox="0 0 20 21" fill="none" xmlns="http://www.w3.org/2000/svg">
<circle cx="1.25" cy="1.25" r="1.25" transform="matrix(1 0 0 -1 13.3333 7.16602)" stroke="#007C4D" stroke-width="1.25" stroke-linecap="round" stroke-linejoin="round"/>
<path d="M2.3117 9.78596C1.47574 10.7196 1.45776 12.1282 2.22497 13.1191C3.74743 15.0854 5.41379 16.7518 7.38011 18.2742C8.371 19.0414 9.77959 19.0234 10.7132 18.1875C13.2481 15.9178 15.5695 13.5459 17.8097 10.9393C18.0312 10.6816 18.1698 10.3658 18.2009 10.0274C18.3384 8.531 18.6208 4.21991 17.4501 3.04913C16.2793 1.87836 11.9682 2.16082 10.4718 2.29832C10.1334 2.32941 9.81758 2.46796 9.55988 2.68944C6.95327 4.92973 4.58134 7.25111 2.3117 9.78596Z" stroke="#007C4D" stroke-width="1.25"/>
<path d="M5.83325 12.166L8.33325 14.666" stroke="#007C4D" stroke-width="1.25" stroke-linecap="round" stroke-linejoin="round"/>
</svg>
