<svg width="20" height="21" viewBox="0 0 20 21" fill="none" xmlns="http://www.w3.org/2000/svg">
<path d="M12.5003 19.4587H7.50033C2.97533 19.4587 1.04199 17.5253 1.04199 13.0003V8.00033C1.04199 3.47533 2.97533 1.54199 7.50033 1.54199H12.5003C17.0253 1.54199 18.9587 3.47533 18.9587 8.00033V13.0003C18.9587 17.5253 17.0253 19.4587 12.5003 19.4587ZM7.50033 2.79199C3.65866 2.79199 2.29199 4.15866 2.29199 8.00033V13.0003C2.29199 16.842 3.65866 18.2087 7.50033 18.2087H12.5003C16.342 18.2087 17.7087 16.842 17.7087 13.0003V8.00033C17.7087 4.15866 16.342 2.79199 12.5003 2.79199H7.50033Z" fill="#828890"/>
<path d="M6.10875 13.2C5.97542 13.2 5.84209 13.1583 5.72542 13.0667C5.45042 12.8583 5.40042 12.4667 5.60875 12.1917L7.59209 9.61667C7.83375 9.30834 8.17542 9.10834 8.56709 9.05834C8.95042 9.00834 9.34209 9.11667 9.65042 9.35834L11.1754 10.5583C11.2338 10.6083 11.2921 10.6083 11.3338 10.6C11.3671 10.6 11.4254 10.5833 11.4754 10.5167L13.4004 8.03334C13.6088 7.75834 14.0088 7.70834 14.2754 7.92501C14.5504 8.13334 14.6004 8.52501 14.3838 8.80001L12.4588 11.2833C12.2171 11.5917 11.8754 11.7917 11.4838 11.8333C11.0921 11.8833 10.7088 11.775 10.4004 11.5333L8.87542 10.3333C8.81709 10.2833 8.75042 10.2833 8.71709 10.2917C8.68375 10.2917 8.62542 10.3083 8.57542 10.375L6.59209 12.95C6.48375 13.1167 6.30042 13.2 6.10875 13.2Z" fill="#828890"/>
</svg>
