<svg width="20" height="21" viewBox="0 0 20 21" fill="none" xmlns="http://www.w3.org/2000/svg">
<path d="M13.4916 2.16699H6.50829C3.47496 2.16699 1.66663 3.97533 1.66663 7.00866V13.9837C1.66663 17.0253 3.47496 18.8337 6.50829 18.8337H13.4833C16.5166 18.8337 18.325 17.0253 18.325 13.992V7.00866C18.3333 3.97533 16.525 2.16699 13.4916 2.16699ZM14.3833 8.80033L12.4583 11.2837C12.2166 11.592 11.875 11.792 11.4833 11.8337C11.0916 11.8837 10.7083 11.7753 10.4 11.5337L8.87496 10.3337C8.81663 10.2837 8.74996 10.2837 8.71663 10.292C8.68329 10.292 8.62496 10.3087 8.57496 10.3753L6.59163 12.9503C6.46663 13.1087 6.28329 13.192 6.09996 13.192C5.96663 13.192 5.83329 13.1503 5.71663 13.0587C5.44163 12.8503 5.39163 12.4587 5.59996 12.1837L7.58329 9.60866C7.82496 9.30033 8.16663 9.10033 8.55829 9.05033C8.94163 9.00033 9.33329 9.10866 9.64163 9.35033L11.1666 10.5503C11.225 10.6003 11.2833 10.6003 11.325 10.592C11.3583 10.592 11.4166 10.5753 11.4666 10.5087L13.3916 8.02533C13.6 7.75033 14 7.70033 14.2666 7.91699C14.5416 8.14199 14.5916 8.53366 14.3833 8.80033Z" fill="#007C4D"/>
</svg>
