<svg width="48" height="48" viewBox="0 0 48 48" fill="none" xmlns="http://www.w3.org/2000/svg">
<circle cx="24" cy="24" r="24" fill="#EDFFEE"/>
<path d="M20.5338 13.42C20.2538 13.94 20.0005 14.4733 19.7871 15.02L21.8271 17.06C22.3738 15.5666 23.1071 14.1666 24.0005 12.8733C25.1071 14.4733 26.0005 16.26 26.5471 18.1666H22.9338L25.6005 20.8333H27.1205C27.2005 21.38 27.2538 21.9533 27.2938 22.5266L29.9205 25.1533C29.9605 24.6066 30.0005 24.06 30.0005 23.5C30.0005 22.5933 29.9205 21.7133 29.8138 20.8333H34.3205C34.5338 21.6866 34.6671 22.58 34.6671 23.5C34.6671 24.42 34.5338 25.3133 34.3205 26.1666H30.9338L35.3338 30.54C36.5871 28.5 37.3338 26.0866 37.3338 23.5C37.3338 16.1666 31.3338 10.1666 24.0005 10.1666C21.4138 10.1666 19.0005 10.9133 16.9605 12.1666L18.9071 14.1666C19.4271 13.86 20.0005 13.6066 20.5338 13.42ZM33.2271 18.1666H29.2938C28.8759 16.5155 28.258 14.9214 27.4538 13.42C29.9071 14.26 31.9471 15.9533 33.2271 18.1666ZM11.1871 9.80664L9.48047 11.5L13.4138 15.4333C11.6316 17.7446 10.6657 20.5814 10.6671 23.5C10.6671 30.8333 16.6671 36.8333 24.0005 36.8333C27.0405 36.8333 29.8271 35.8066 32.0805 34.1L35.7871 37.8066L37.4805 36.1133L11.1871 9.80664ZM15.3338 17.3266L16.1471 18.1666H14.7738C14.9338 17.8733 15.1205 17.6066 15.3338 17.3266ZM13.6805 26.1666C13.4671 25.3133 13.3338 24.42 13.3338 23.5C13.3338 22.58 13.4671 21.6866 13.6805 20.8333H18.1871C18.0805 21.7133 18.0005 22.5933 18.0005 23.5C18.0005 24.4066 18.0805 25.2866 18.1871 26.1666H13.6805ZM14.7738 28.8333H18.6671C19.1338 30.5 19.7338 32.1 20.5338 33.58C18.1048 32.743 16.0595 31.0576 14.7738 28.8333ZM20.6671 23.5C20.6671 23.2333 20.6671 22.98 20.7071 22.7266L24.1471 26.1666H20.8805C20.7471 25.2866 20.6671 24.4066 20.6671 23.5ZM24.0005 34.1133C22.8938 32.5133 22.0005 30.74 21.4538 28.8333H26.5471C26.0005 30.74 25.1071 32.5133 24.0005 34.1133ZM27.4538 33.58C27.9471 32.6733 28.3471 31.7 28.6671 30.7133L30.1605 32.1666C29.3338 32.7666 28.4271 33.2466 27.4538 33.58Z" fill="#007C4D"/>
</svg>
