<svg width="48" height="48" viewBox="0 0 48 48" fill="none" xmlns="http://www.w3.org/2000/svg">
<circle cx="24" cy="24" r="24" fill="#EDFFEE"/>
<path d="M21.0001 31V37.5C20.9978 37.6976 21.0351 37.8937 21.1097 38.0767C21.1843 38.2597 21.2947 38.426 21.4344 38.5657C21.5741 38.7054 21.7404 38.8158 21.9234 38.8904C22.1064 38.965 22.3025 39.0023 22.5001 39C22.6977 39.0023 22.8938 38.965 23.0768 38.8904C23.2598 38.8158 23.4261 38.7054 23.5658 38.5657C23.7055 38.426 23.8159 38.2597 23.8905 38.0767C23.9651 37.8937 24.0024 37.6976 24.0001 37.5" stroke="#007C4D" stroke-width="2" stroke-miterlimit="10" stroke-linecap="round"/>
<path d="M23.9997 31V37.5C23.9975 37.6976 24.0347 37.8937 24.1093 38.0767C24.1839 38.2597 24.2943 38.426 24.434 38.5657C24.5738 38.7054 24.74 38.8158 24.923 38.8904C25.1061 38.965 25.3021 39.0023 25.4997 39C25.6973 39.0023 25.8934 38.965 26.0764 38.8904C26.2594 38.8158 26.4257 38.7054 26.5654 38.5657C26.7052 38.426 26.8156 38.2597 26.8902 38.0767C26.9647 37.8937 27.002 37.6976 26.9997 37.5V31M19.4372 25.125C19.3832 25.3151 19.2917 25.4925 19.1681 25.6468C19.0445 25.801 18.8913 25.929 18.7176 26.0232C18.5438 26.1174 18.353 26.1759 18.1563 26.1954C17.9596 26.2148 17.761 26.1947 17.5722 26.1362C17.3821 26.0822 17.2048 25.9907 17.0505 25.8671C16.8963 25.7435 16.7683 25.5903 16.6742 25.4166C16.58 25.2428 16.5216 25.052 16.5022 24.8553C16.4829 24.6586 16.5031 24.46 16.5616 24.2713L18.1241 19.0038C18.2964 18.4247 18.6512 17.9168 19.1356 17.5557C19.62 17.1946 20.2081 16.9997 20.8122 17H27.1872C27.7915 16.9999 28.3795 17.1951 28.8638 17.5564C29.3481 17.9177 29.7027 18.4258 29.8747 19.005L31.4372 24.2725C31.4958 24.4613 31.5159 24.6598 31.4966 24.8565C31.4773 25.0532 31.4188 25.2441 31.3247 25.4178C31.2305 25.5916 31.1025 25.7448 30.9483 25.8684C30.7941 25.9919 30.6167 26.0835 30.4266 26.1375C30.2379 26.1953 30.0396 26.2149 29.8433 26.1951C29.647 26.1754 29.4566 26.1166 29.2832 26.0223C29.1099 25.928 28.9571 25.8001 28.8339 25.646C28.7106 25.4919 28.6193 25.3148 28.5654 25.125" stroke="#007C4D" stroke-width="2" stroke-miterlimit="10" stroke-linecap="round"/>
<path d="M24 14C25.3807 14 26.5 12.8807 26.5 11.5C26.5 10.1193 25.3807 9 24 9C22.6193 9 21.5 10.1193 21.5 11.5C21.5 12.8807 22.6193 14 24 14Z" stroke="#007C4D" stroke-width="2" stroke-miterlimit="10" stroke-linecap="round"/>
<path d="M21 20L18 30H30L27 20" stroke="#007C4D" stroke-width="2" stroke-linecap="round" stroke-linejoin="round"/>
</svg>
