<svg width="38" height="38" viewBox="0 0 38 38" fill="none" xmlns="http://www.w3.org/2000/svg">
<circle cx="19" cy="19" r="19" fill="#F8F8F8"/>
<path d="M27.19 21.0598L26.06 19.1798C25.81 18.7698 25.59 17.9798 25.59 17.4998V15.6298C25.59 11.9998 22.64 9.0498 19.02 9.0498C15.39 9.0598 12.44 11.9998 12.44 15.6298V17.4898C12.44 17.9698 12.22 18.7598 11.98 19.1698L10.85 21.0498C10.42 21.7798 10.32 22.6098 10.59 23.3298C10.86 24.0598 11.47 24.6398 12.27 24.8998C13.35 25.2598 14.44 25.5198 15.55 25.7098C15.66 25.7298 15.77 25.7398 15.88 25.7598C16.02 25.7798 16.17 25.7998 16.32 25.8198C16.58 25.8598 16.84 25.8898 17.11 25.9098C17.74 25.9698 18.38 25.9998 19.02 25.9998C19.65 25.9998 20.28 25.9698 20.9 25.9098C21.13 25.8898 21.36 25.8698 21.58 25.8398C21.76 25.8198 21.94 25.7998 22.12 25.7698C22.23 25.7598 22.34 25.7398 22.45 25.7198C23.57 25.5398 24.68 25.2598 25.76 24.8998C26.53 24.6398 27.12 24.0598 27.4 23.3198C27.68 22.5698 27.6 21.7498 27.19 21.0598ZM19.75 16.9998C19.75 17.4198 19.41 17.7598 18.99 17.7598C18.57 17.7598 18.23 17.4198 18.23 16.9998V13.8998C18.23 13.4798 18.57 13.1398 18.99 13.1398C19.41 13.1398 19.75 13.4798 19.75 13.8998V16.9998Z" fill="#181818"/>
<path d="M21.8299 27.01C21.4099 28.17 20.2999 29 18.9999 29C18.2099 29 17.4299 28.68 16.8799 28.11C16.5599 27.81 16.3199 27.41 16.1799 27C16.3099 27.02 16.4399 27.03 16.5799 27.05C16.8099 27.08 17.0499 27.11 17.2899 27.13C17.8599 27.18 18.4399 27.21 19.0199 27.21C19.5899 27.21 20.1599 27.18 20.7199 27.13C20.9299 27.11 21.1399 27.1 21.3399 27.07C21.4999 27.05 21.6599 27.03 21.8299 27.01Z" fill="#181818"/>
<circle cx="25" cy="11" r="2.75" fill="#FF0000" stroke="#F8F8F8" stroke-width="0.5"/>
</svg>
