<svg width="20" height="20" viewBox="0 0 20 20" fill="none" xmlns="http://www.w3.org/2000/svg">
<circle cx="1.25" cy="1.25" r="1.25" transform="matrix(1 0 0 -1 13.334 6.66699)" stroke="#828890" stroke-width="1.25" stroke-linecap="round" stroke-linejoin="round"/>
<path d="M2.31218 9.28693C1.47623 10.2206 1.45824 11.6292 2.22546 12.6201C3.74792 14.5864 5.41427 16.2527 7.3806 17.7752C8.37149 18.5424 9.78008 18.5244 10.7137 17.6885C13.2486 15.4188 15.5699 13.0469 17.8102 10.4403C18.0317 10.1826 18.1703 9.86673 18.2014 9.52835C18.3389 8.03198 18.6213 3.72089 17.4505 2.55011C16.2798 1.37933 11.9687 1.6618 10.4723 1.7993C10.1339 1.83039 9.81807 1.96893 9.56037 2.19042C6.95376 4.43071 4.58183 6.75208 2.31218 9.28693Z" stroke="#828890" stroke-width="1.25"/>
<path d="M5.83398 11.667L8.33398 14.167" stroke="#828890" stroke-width="1.25" stroke-linecap="round" stroke-linejoin="round"/>
</svg>
