<?xml version="1.0" encoding="UTF-8"?>
<!DOCTYPE svg PUBLIC "-//W3C//DTD SVG 1.1//EN" "http://www.w3.org/Graphics/SVG/1.1/DTD/svg11.dtd">
<svg xmlns="http://www.w3.org/2000/svg" version="1.1" width="300px" height="75px" style="shape-rendering:geometricPrecision; text-rendering:geometricPrecision; image-rendering:optimizeQuality; fill-rule:evenodd; clip-rule:evenodd" xmlns:xlink="http://www.w3.org/1999/xlink">
<g><path style="opacity:1" fill="#010101" d="M -0.5,-0.5 C 99.5,-0.5 199.5,-0.5 299.5,-0.5C 299.5,24.5 299.5,49.5 299.5,74.5C 199.5,74.5 99.5,74.5 -0.5,74.5C -0.5,49.5 -0.5,24.5 -0.5,-0.5 Z"/></g>
<g><path style="opacity:1" fill="#b7b7b7" d="M 101.5,16.5 C 99.549,16.7733 98.049,16.1066 97,14.5C 95.7475,17.0135 95.2475,19.6802 95.5,22.5C 81.7465,19.0492 75.7465,24.3825 77.5,38.5C 75.0872,40.0507 72.4206,40.7174 69.5,40.5C 65.7821,24.4051 71.9487,14.7384 88,11.5C 93.1595,11.7159 97.6595,13.3825 101.5,16.5 Z"/></g>
<g><path style="opacity:1" fill="#efefef" d="M 133.5,21.5 C 141.633,19.7536 147.633,22.4203 151.5,29.5C 148.115,30.9827 145.448,30.1494 143.5,27C 137.414,24.9332 133.248,26.7666 131,32.5C 129.593,41.0786 133.093,45.2452 141.5,45C 143.742,43.238 146.076,41.738 148.5,40.5C 149.5,40.8333 150.5,41.1667 151.5,41.5C 147.842,49.0763 141.842,51.5763 133.5,49C 125.127,43.1986 123.293,35.6986 128,26.5C 129.73,24.5981 131.563,22.9314 133.5,21.5 Z"/></g>
<g><path style="opacity:1" fill="#fefffe" d="M 203.5,21.5 C 204.833,21.5 206.167,21.5 207.5,21.5C 207.5,30.8333 207.5,40.1667 207.5,49.5C 206.167,49.5 204.833,49.5 203.5,49.5C 203.5,40.1667 203.5,30.8333 203.5,21.5 Z"/></g>
<g><path style="opacity:1" fill="#c8c8c8" d="M 203.5,21.5 C 204.919,20.5489 206.585,20.2155 208.5,20.5C 208.827,30.3478 208.494,40.0144 207.5,49.5C 207.5,40.1667 207.5,30.8333 207.5,21.5C 206.167,21.5 204.833,21.5 203.5,21.5 Z"/></g>
<g><path style="opacity:1" fill="#c2c2c2" d="M 86.5,26.5 C 92.873,26.3677 95.373,29.3677 94,35.5C 90.3797,39.4875 86.713,39.4875 83,35.5C 81.9804,31.5532 83.1471,28.5532 86.5,26.5 Z"/></g>
<g><path style="opacity:1" fill="#f2f2f2" d="M 174.5,35.5 C 174.5,37.1667 174.5,38.8333 174.5,40.5C 169.637,40.1805 164.97,40.5139 160.5,41.5C 160.884,44.0496 162.384,45.3829 165,45.5C 167.93,43.7619 171.097,43.2619 174.5,44C 173.5,46.3333 171.833,48 169.5,49C 157.829,50.9934 153.329,46.16 156,34.5C 159.343,29.7817 163.843,28.2817 169.5,30C 172.056,31.0545 173.723,32.8878 174.5,35.5 Z"/></g>
<g><path style="opacity:1" fill="#f1f1f1" d="M 198.5,40.5 C 193.456,40.1725 188.456,40.5059 183.5,41.5C 183.624,42.1067 183.957,42.44 184.5,42.5C 185.317,44.4779 186.817,45.4779 189,45.5C 191.93,43.7619 195.097,43.2619 198.5,44C 197.5,46.3333 195.833,48 193.5,49C 184.875,51.3618 179.875,48.1951 178.5,39.5C 180.677,29.687 186.343,27.0203 195.5,31.5C 198.077,33.9202 199.077,36.9202 198.5,40.5 Z"/></g>
<g><path style="opacity:1" fill="#eeeeee" d="M 218.5,29.5 C 223.447,28.6276 227.613,29.9609 231,33.5C 231.499,38.8229 231.666,44.1563 231.5,49.5C 229.508,49.6715 227.842,49.0049 226.5,47.5C 221.708,50.4291 217.208,50.0958 213,46.5C 211.835,42.3164 213.335,39.4831 217.5,38C 220.553,37.8214 223.553,37.3214 226.5,36.5C 225.73,34.7282 224.397,33.7282 222.5,33.5C 219.785,35.3185 216.785,36.3185 213.5,36.5C 214.002,33.3315 215.669,30.9981 218.5,29.5 Z"/></g>
<g><path style="opacity:1" fill="#0f0f0f" d="M 162.5,33.5 C 165.596,32.9066 167.929,33.9066 169.5,36.5C 166.5,37.8333 163.5,37.8333 160.5,36.5C 161.193,35.4822 161.859,34.4822 162.5,33.5 Z"/></g>
<g><path style="opacity:1" fill="#0d0d0d" d="M 186.5,33.5 C 189.596,32.9066 191.929,33.9066 193.5,36.5C 190.5,37.8333 187.5,37.8333 184.5,36.5C 185.193,35.4822 185.859,34.4822 186.5,33.5 Z"/></g>
<g><path style="opacity:1" fill="#e1e1e1" d="M 101.5,16.5 C 110.405,24.4656 111.905,33.799 106,44.5C 101.963,48.369 98.1296,52.369 94.5,56.5C 92.6096,56.7035 91.1096,56.0368 90,54.5C 87.9937,51.4642 87.1604,48.1309 87.5,44.5C 96.6036,43.5663 100.77,38.5663 100,29.5C 98.9879,26.7982 97.4879,24.4649 95.5,22.5C 95.2475,19.6802 95.7475,17.0135 97,14.5C 98.049,16.1066 99.549,16.7733 101.5,16.5 Z"/></g>
<g><path style="opacity:1" fill="#777777" d="M 77.5,38.5 C 78.4204,52.3097 75.7537,52.9764 69.5,40.5C 72.4206,40.7174 75.0872,40.0507 77.5,38.5 Z"/></g>
<g><path style="opacity:1" fill="#6c6c6c" d="M 174.5,35.5 C 175.461,37.2646 175.795,39.2646 175.5,41.5C 170.5,41.5 165.5,41.5 160.5,41.5C 164.97,40.5139 169.637,40.1805 174.5,40.5C 174.5,38.8333 174.5,37.1667 174.5,35.5 Z"/></g>
<g><path style="opacity:1" fill="#6b6b6b" d="M 198.5,40.5 C 193.833,41.1667 189.167,41.8333 184.5,42.5C 183.957,42.44 183.624,42.1067 183.5,41.5C 188.456,40.5059 193.456,40.1725 198.5,40.5 Z"/></g>
<g><path style="opacity:1" fill="#111111" d="M 218.5,41.5 C 220.833,41.5 223.167,41.5 225.5,41.5C 225.67,42.8221 225.337,43.9887 224.5,45C 222.527,45.4955 220.527,45.6621 218.5,45.5C 218.5,44.1667 218.5,42.8333 218.5,41.5 Z"/></g>
<g><path style="opacity:1" fill="#00ad59" d="M 236.5,43.5 C 241.159,43.0146 242.492,44.848 240.5,49C 235.728,49.8104 234.395,47.9771 236.5,43.5 Z"/></g>
<g><path style="opacity:1" fill="#a7a7a7" d="M 87.5,44.5 C 87.1604,48.1309 87.9937,51.4642 90,54.5C 91.1096,56.0368 92.6096,56.7035 94.5,56.5C 91.5152,62.5535 88.0152,62.8868 84,57.5C 83.1717,52.798 83.3384,48.1313 84.5,43.5C 85.4168,44.1272 86.4168,44.4606 87.5,44.5 Z"/></g>
</svg>
