<svg width="13" height="13" viewBox="0 0 13 13" fill="none" xmlns="http://www.w3.org/2000/svg">
<path d="M6.45643 12.1626H4.33486C2.35977 12.1626 1.48083 11.2837 1.48083 9.30861V7.18703C1.48083 5.21195 2.35977 4.33301 4.33486 4.33301H6.45643C8.43152 4.33301 9.31046 5.21195 9.31046 7.18703V9.30861C9.31046 11.2837 8.43152 12.1626 6.45643 12.1626ZM4.33486 5.09071C2.76893 5.09071 2.23854 5.62111 2.23854 7.18703V9.30861C2.23854 10.8745 2.76893 11.4049 4.33486 11.4049H6.45643C8.02236 11.4049 8.55275 10.8745 8.55275 9.30861V7.18703C8.55275 5.62111 8.02236 5.09071 6.45643 5.09071H4.33486Z" fill="#181818"/>
<path d="M9.4872 9.13236H8.93155C8.72444 9.13236 8.55269 8.96061 8.55269 8.7535V7.18758C8.55269 5.62166 8.0223 5.09126 6.45637 5.09126H4.89045C4.68334 5.09126 4.5116 4.91952 4.5116 4.71241V4.15676C4.5116 2.18167 5.39053 1.30273 7.36562 1.30273H9.4872C11.4623 1.30273 12.3412 2.18167 12.3412 4.15676V6.27833C12.3412 8.25342 11.4623 9.13236 9.4872 9.13236ZM9.3104 8.37465H9.4872C11.0531 8.37465 11.5835 7.84426 11.5835 6.27833V4.15676C11.5835 2.59083 11.0531 2.06044 9.4872 2.06044H7.36562C5.7997 2.06044 5.2693 2.59083 5.2693 4.15676V4.33356H6.45637C8.43146 4.33356 9.3104 5.21249 9.3104 7.18758V8.37465Z" fill="#181818"/>
</svg>
