<svg width="37" height="35" viewBox="0 0 37 35" fill="none" xmlns="http://www.w3.org/2000/svg">
<rect width="37" height="34.2927" rx="7.21951" fill="#EDFFEE"/>
<path d="M25 9.14648C25.5304 9.14648 26.0391 9.3572 26.4142 9.73227C26.7893 10.1073 27 10.6161 27 11.1465V23.1465C27 23.6769 26.7893 24.1856 26.4142 24.5607C26.0391 24.9358 25.5304 25.1465 25 25.1465H11C10.4696 25.1465 9.96086 24.9358 9.58579 24.5607C9.21071 24.1856 9 23.6769 9 23.1465V11.1465C9 10.6161 9.21071 10.1073 9.58579 9.73227C9.96086 9.3572 10.4696 9.14648 11 9.14648H25ZM25 15.1465H11V22.1465C11 22.3914 11.09 22.6278 11.2527 22.8109C11.4155 22.9939 11.6397 23.1108 11.883 23.1395L12 23.1465H24C24.2449 23.1465 24.4813 23.0565 24.6644 22.8938C24.8474 22.731 24.9643 22.5067 24.993 22.2635L25 22.1465V15.1465ZM12 11.1465C11.7348 11.1465 11.4804 11.2518 11.2929 11.4394C11.1054 11.6269 11 11.8813 11 12.1465C11 12.4117 11.1054 12.6661 11.2929 12.8536C11.4804 13.0411 11.7348 13.1465 12 13.1465C12.2652 13.1465 12.5196 13.0411 12.7071 12.8536C12.8946 12.6661 13 12.4117 13 12.1465C13 11.8813 12.8946 11.6269 12.7071 11.4394C12.5196 11.2518 12.2652 11.1465 12 11.1465ZM15 11.1465C14.7348 11.1465 14.4804 11.2518 14.2929 11.4394C14.1054 11.6269 14 11.8813 14 12.1465C14 12.4117 14.1054 12.6661 14.2929 12.8536C14.4804 13.0411 14.7348 13.1465 15 13.1465C15.2652 13.1465 15.5196 13.0411 15.7071 12.8536C15.8946 12.6661 16 12.4117 16 12.1465C16 11.8813 15.8946 11.6269 15.7071 11.4394C15.5196 11.2518 15.2652 11.1465 15 11.1465ZM18 11.1465C17.7348 11.1465 17.4804 11.2518 17.2929 11.4394C17.1054 11.6269 17 11.8813 17 12.1465C17 12.4117 17.1054 12.6661 17.2929 12.8536C17.4804 13.0411 17.7348 13.1465 18 13.1465C18.2652 13.1465 18.5196 13.0411 18.7071 12.8536C18.8946 12.6661 19 12.4117 19 12.1465C19 11.8813 18.8946 11.6269 18.7071 11.4394C18.5196 11.2518 18.2652 11.1465 18 11.1465Z" fill="#007C4D"/>
</svg>
