<svg width="20" height="21" viewBox="0 0 20 21" fill="none" xmlns="http://www.w3.org/2000/svg">
<path d="M16.475 9.87533H13.1083C11.4333 9.87533 10.625 9.13366 10.625 7.60033V3.81699C10.625 2.28366 11.4417 1.54199 13.1083 1.54199H16.475C18.15 1.54199 18.9583 2.28366 18.9583 3.81699V7.59199C18.9583 9.13366 18.1417 9.87533 16.475 9.87533ZM13.1083 2.79199C11.9917 2.79199 11.875 3.10866 11.875 3.81699V7.59199C11.875 8.30866 11.9917 8.61699 13.1083 8.61699H16.475C17.5917 8.61699 17.7083 8.30033 17.7083 7.59199V3.81699C17.7083 3.10033 17.5917 2.79199 16.475 2.79199H13.1083Z" fill="#828890"/>
<path d="M16.475 19.4583H13.1083C11.4333 19.4583 10.625 18.6417 10.625 16.975V13.6083C10.625 11.9333 11.4417 11.125 13.1083 11.125H16.475C18.15 11.125 18.9583 11.9417 18.9583 13.6083V16.975C18.9583 18.6417 18.1417 19.4583 16.475 19.4583ZM13.1083 12.375C12.125 12.375 11.875 12.625 11.875 13.6083V16.975C11.875 17.9583 12.125 18.2083 13.1083 18.2083H16.475C17.4583 18.2083 17.7083 17.9583 17.7083 16.975V13.6083C17.7083 12.625 17.4583 12.375 16.475 12.375H13.1083Z" fill="#828890"/>
<path d="M6.89199 9.87533H3.52533C1.85033 9.87533 1.04199 9.13366 1.04199 7.60033V3.81699C1.04199 2.28366 1.85866 1.54199 3.52533 1.54199H6.89199C8.56699 1.54199 9.37533 2.28366 9.37533 3.81699V7.59199C9.37533 9.13366 8.55866 9.87533 6.89199 9.87533ZM3.52533 2.79199C2.40866 2.79199 2.29199 3.10866 2.29199 3.81699V7.59199C2.29199 8.30866 2.40866 8.61699 3.52533 8.61699H6.89199C8.00866 8.61699 8.12533 8.30033 8.12533 7.59199V3.81699C8.12533 3.10033 8.00866 2.79199 6.89199 2.79199H3.52533Z" fill="#828890"/>
<path d="M6.89199 19.4583H3.52533C1.85033 19.4583 1.04199 18.6417 1.04199 16.975V13.6083C1.04199 11.9333 1.85866 11.125 3.52533 11.125H6.89199C8.56699 11.125 9.37533 11.9417 9.37533 13.6083V16.975C9.37533 18.6417 8.55866 19.4583 6.89199 19.4583ZM3.52533 12.375C2.54199 12.375 2.29199 12.625 2.29199 13.6083V16.975C2.29199 17.9583 2.54199 18.2083 3.52533 18.2083H6.89199C7.87533 18.2083 8.12533 17.9583 8.12533 16.975V13.6083C8.12533 12.625 7.87533 12.375 6.89199 12.375H3.52533Z" fill="#828890"/>
</svg>
