<svg width="21" height="20" viewBox="0 0 21 20" fill="none" xmlns="http://www.w3.org/2000/svg">
<path fill-rule="evenodd" clip-rule="evenodd" d="M18.2124 4.57398C18.4592 4.81095 18.4672 5.20314 18.2303 5.44998L14.0669 9.78685C13.95 9.90855 13.7886 9.97735 13.6199 9.97735C13.4512 9.97735 13.2898 9.90855 13.173 9.78685L10.6461 7.15465L7.6516 10.2739L9.78506 12.322L2.91406 14.3142L4.62427 7.36766L6.75773 9.41578L10.1991 5.83097C10.316 5.70927 10.4774 5.64047 10.6461 5.64047C10.8148 5.64047 10.9762 5.70927 11.093 5.83097L13.6199 8.46317L17.3364 4.59186C17.5734 4.34502 17.9656 4.33702 18.2124 4.57398Z" fill="#1C1C1C"/>
</svg>
