<svg width="32" height="33" viewBox="0 0 32 33" fill="none" xmlns="http://www.w3.org/2000/svg">
<path d="M25.9136 6.35327C26.09 6.63049 25.7878 6.95344 25.4674 6.88062C24.8408 6.69396 24.1474 6.60062 23.4408 6.60062H19.0508C18.8346 6.60062 18.631 6.49895 18.5012 6.32613L16.9741 4.29396C16.7863 4.02788 16.9638 3.64062 17.2895 3.64062H20.9608C23.0421 3.64062 24.8755 4.7216 25.9136 6.35327Z" fill="#007C4D"/>
<path d="M26.8537 9.69396C26.2803 9.28063 25.627 8.97396 24.9203 8.80062C24.4403 8.66729 23.947 8.60063 23.4403 8.60063H18.4803C17.707 8.60063 17.6537 8.53396 17.2403 7.98729L15.3737 5.50729C14.507 4.34729 13.827 3.64062 11.6537 3.64062H8.56033C5.30699 3.64062 2.66699 6.28063 2.66699 9.53396V24.414C2.66699 27.6673 5.30699 30.3073 8.56033 30.3073H23.4403C26.6937 30.3073 29.3337 27.6673 29.3337 24.414V14.494C29.3337 12.5073 28.3603 10.7606 26.8537 9.69396ZM19.187 22.7606H12.8003C12.2803 22.7606 11.8803 22.3473 11.8803 21.8273C11.8803 21.3206 12.2803 20.894 12.8003 20.894H19.187C19.707 20.894 20.1203 21.3206 20.1203 21.8273C20.1203 22.3473 19.707 22.7606 19.187 22.7606Z" fill="#007C4D"/>
</svg>
