<svg width="48" height="48" viewBox="0 0 48 48" fill="none" xmlns="http://www.w3.org/2000/svg">
<circle cx="24" cy="24" r="24" fill="#EDFFEE"/>
<path d="M33.3333 12.8335C34.0406 12.8335 34.7189 13.1144 35.219 13.6145C35.719 14.1146 36 14.7929 36 15.5002V31.5002C36 32.2074 35.719 32.8857 35.219 33.3858C34.7189 33.8859 34.0406 34.1668 33.3333 34.1668H14.6667C13.9594 34.1668 13.2811 33.8859 12.781 33.3858C12.281 32.8857 12 32.2074 12 31.5002V15.5002C12 14.7929 12.281 14.1146 12.781 13.6145C13.2811 13.1144 13.9594 12.8335 14.6667 12.8335H33.3333ZM33.3333 20.8335H14.6667V30.1668C14.6667 30.4934 14.7866 30.8086 15.0036 31.0527C15.2206 31.2967 15.5197 31.4526 15.844 31.4908L16 31.5002H32C32.3266 31.5001 32.6418 31.3802 32.8858 31.1632C33.1299 30.9462 33.2858 30.6472 33.324 30.3228L33.3333 30.1668V20.8335ZM16 15.5002C15.6464 15.5002 15.3072 15.6406 15.0572 15.8907C14.8071 16.1407 14.6667 16.4799 14.6667 16.8335C14.6667 17.1871 14.8071 17.5263 15.0572 17.7763C15.3072 18.0264 15.6464 18.1668 16 18.1668C16.3536 18.1668 16.6928 18.0264 16.9428 17.7763C17.1929 17.5263 17.3333 17.1871 17.3333 16.8335C17.3333 16.4799 17.1929 16.1407 16.9428 15.8907C16.6928 15.6406 16.3536 15.5002 16 15.5002ZM20 15.5002C19.6464 15.5002 19.3072 15.6406 19.0572 15.8907C18.8071 16.1407 18.6667 16.4799 18.6667 16.8335C18.6667 17.1871 18.8071 17.5263 19.0572 17.7763C19.3072 18.0264 19.6464 18.1668 20 18.1668C20.3536 18.1668 20.6928 18.0264 20.9428 17.7763C21.1929 17.5263 21.3333 17.1871 21.3333 16.8335C21.3333 16.4799 21.1929 16.1407 20.9428 15.8907C20.6928 15.6406 20.3536 15.5002 20 15.5002ZM24 15.5002C23.6464 15.5002 23.3072 15.6406 23.0572 15.8907C22.8071 16.1407 22.6667 16.4799 22.6667 16.8335C22.6667 17.1871 22.8071 17.5263 23.0572 17.7763C23.3072 18.0264 23.6464 18.1668 24 18.1668C24.3536 18.1668 24.6928 18.0264 24.9428 17.7763C25.1929 17.5263 25.3333 17.1871 25.3333 16.8335C25.3333 16.4799 25.1929 16.1407 24.9428 15.8907C24.6928 15.6406 24.3536 15.5002 24 15.5002Z" fill="#007C4D"/>
</svg>
