<svg width="56" height="31" viewBox="0 0 56 31" fill="none" xmlns="http://www.w3.org/2000/svg">
<rect x="0.25" y="0.25" width="55.5" height="30.5" rx="3.75" fill="white" stroke="#D9D9D9" stroke-width="0.5"/>
<path d="M24.5791 8.9165H32.4202V23.0057H24.5791V8.9165Z" fill="#FF5F00"/>
<path d="M25.0773 15.9614C25.0773 13.0987 26.4214 10.5596 28.4875 8.91669C26.9691 7.72186 25.0524 7 22.9615 7C18.0077 7 14 11.0077 14 15.9614C14 20.9151 18.0077 24.9227 22.9614 24.9227C25.0523 24.9227 26.969 24.2009 28.4875 23.0059C26.4214 21.3879 25.0773 18.824 25.0773 15.9614Z" fill="#EB001B"/>
<path d="M42.9997 15.9614C42.9997 20.9149 38.992 24.9227 34.0383 24.9227C31.9473 24.9227 30.0307 24.2009 28.5122 23.0059C30.6032 21.3631 31.9225 18.824 31.9225 15.9614C31.9225 13.0987 30.5782 10.5596 28.5122 8.91669C30.0305 7.72186 31.9473 7 34.0383 7C38.992 7 42.9997 11.0326 42.9997 15.9614Z" fill="#F79E1B"/>
</svg>
