<svg width="14" height="14" viewBox="0 0 14 14" fill="none" xmlns="http://www.w3.org/2000/svg">
<path fill-rule="evenodd" clip-rule="evenodd" d="M0.142578 6.99942C0.142578 10.7708 3.22858 13.8561 6.99991 13.8561C10.7712 13.8561 13.8572 10.7708 13.8572 7.00009C13.8572 3.22676 10.7712 0.14209 6.99991 0.14209C3.22858 0.14209 0.142578 3.22676 0.142578 6.99942ZM1.28591 6.99942C1.28591 3.85609 3.85724 1.28476 6.99991 1.28476C10.1426 1.28476 12.7146 3.85609 12.7146 6.99942C12.7146 10.1421 10.1426 12.7134 6.99991 12.7134C3.85724 12.7134 1.28591 10.1421 1.28591 6.99942ZM7.57125 3.57142H6.42858V8.14342H7.57125V3.57142ZM6.99991 11.0008C7.11447 11.004 7.2285 10.9841 7.33527 10.9425C7.44204 10.9009 7.53938 10.8383 7.62153 10.7584C7.70369 10.6785 7.76899 10.5829 7.81358 10.4774C7.85817 10.3718 7.88115 10.2584 7.88115 10.1438C7.88115 10.0292 7.85817 9.91572 7.81358 9.81015C7.76899 9.70459 7.70369 9.60903 7.62153 9.52914C7.53938 9.44924 7.44204 9.38663 7.33527 9.345C7.2285 9.30336 7.11447 9.28356 6.99991 9.28676C6.77856 9.29549 6.56918 9.38957 6.41565 9.54927C6.26213 9.70897 6.17638 9.9219 6.17638 10.1434C6.17638 10.3649 6.26213 10.5779 6.41565 10.7376C6.56918 10.8973 6.77856 10.992 6.99991 11.0008Z" fill="black"/>
</svg>
