<svg width="48" height="48" viewBox="0 0 48 48" fill="none" xmlns="http://www.w3.org/2000/svg">
<circle cx="24" cy="24" r="24" fill="#EDFFEE"/>
<path d="M21.9472 32.8337C20.0005 35.5937 16.2005 36.287 13.4538 34.367C10.7205 32.447 10.0805 28.6203 12.0005 25.8337C12.5378 25.0545 13.2485 24.4105 14.0768 23.9525C14.905 23.4944 15.8282 23.2346 16.7738 23.1937L16.8405 25.1003C15.6272 25.1937 14.4538 25.8203 13.6938 26.9137C12.3605 28.8337 12.7738 31.4203 14.6005 32.7137C16.4405 33.9937 19.0138 33.5003 20.3472 31.5937C20.7605 30.9937 21.0005 30.3403 21.0938 29.6737V28.327L28.5338 28.2737L28.6272 28.127C29.3338 26.9003 30.8672 26.4737 32.0672 27.167C32.3544 27.3351 32.6056 27.558 32.8066 27.8232C33.0076 28.0884 33.1544 28.3906 33.2386 28.7125C33.3228 29.0344 33.3428 29.3698 33.2973 29.6994C33.2519 30.0291 33.142 30.3465 32.9738 30.6337C32.2672 31.847 30.7205 32.2737 29.5205 31.5803C28.9738 31.2737 28.5872 30.7803 28.4138 30.2203L22.9872 30.247C22.8267 31.1729 22.4723 32.0544 21.9472 32.8337ZM31.6538 23.3137C35.0272 23.727 37.4272 26.7537 37.0138 30.0737C36.6005 33.407 33.5338 35.767 30.1605 35.3537C29.2238 35.2445 28.3245 34.9221 27.5317 34.4113C26.739 33.9005 26.0737 33.2149 25.5872 32.407L27.2405 31.447C27.5825 31.9766 28.037 32.4244 28.5716 32.7585C29.1062 33.0927 29.7079 33.305 30.3338 33.3803C32.6672 33.6603 34.7338 32.0737 35.0138 29.847C35.2938 27.6203 33.6405 25.5803 31.3338 25.3003C30.6138 25.2203 29.9205 25.3137 29.2938 25.5403L28.1605 26.127L24.7205 19.767H24.4272C23.7559 19.7475 23.1197 19.463 22.6575 18.9759C22.1953 18.4887 21.9447 17.8384 21.9605 17.167C22.0005 15.7803 23.2005 14.7003 24.6005 14.7537C26.0005 14.8337 27.1072 15.967 27.0672 17.3537C27.0405 17.9403 26.8138 18.4737 26.4538 18.887L28.9872 23.567C29.8138 23.3003 30.7205 23.207 31.6538 23.3137ZM19.0005 19.687C17.6672 16.5537 19.0805 12.967 22.1605 11.6603C25.2538 10.3537 28.8272 11.8337 30.1605 14.967C30.9472 16.7937 30.7872 18.7937 29.8938 20.3937L28.2405 19.4337C28.8005 18.3537 28.8938 17.0337 28.3605 15.7937C27.4538 13.6603 25.0405 12.6337 22.9738 13.5003C20.8938 14.3803 19.9605 16.8337 20.8672 18.967C21.2405 19.847 21.8672 20.527 22.6272 20.9803L23.1472 21.2603L19.0538 27.9137C19.0938 27.9803 19.1472 28.0603 19.1872 28.167C19.8405 29.3803 19.3872 30.9137 18.1605 31.567C16.9472 32.2203 15.4138 31.7403 14.7472 30.487C14.0938 29.247 14.5472 27.7137 15.7738 27.0603C16.2938 26.7803 16.8672 26.7137 17.4138 26.8337L20.4938 21.807C19.8672 21.2337 19.3338 20.5137 19.0005 19.687Z" fill="#007C4D"/>
</svg>
