<svg width="48" height="48" viewBox="0 0 48 48" fill="none" xmlns="http://www.w3.org/2000/svg">
<circle cx="24" cy="24" r="24" fill="#EDFFEE"/>
<path d="M24.0003 37.3332C22.1559 37.3332 20.4226 36.9829 18.8003 36.2825C17.1781 35.5821 15.767 34.6323 14.567 33.4332C13.367 32.2341 12.4172 30.8229 11.7177 29.1998C11.0181 27.5767 10.6679 25.8434 10.667 23.9998C10.6661 22.1563 11.0163 20.4229 11.7177 18.7998C12.419 17.1767 13.3688 15.7656 14.567 14.5665C15.7652 13.3674 17.1763 12.4176 18.8003 11.7172C20.4243 11.0167 22.1577 10.6665 24.0003 10.6665C25.843 10.6665 27.5763 11.0167 29.2003 11.7172C30.8243 12.4176 32.2354 13.3674 33.4337 14.5665C34.6319 15.7656 35.5821 17.1767 36.2843 18.7998C36.9865 20.4229 37.3363 22.1563 37.3337 23.9998C37.331 25.8434 36.9808 27.5767 36.283 29.1998C35.5852 30.8229 34.6354 32.2341 33.4337 33.4332C32.2319 34.6323 30.8208 35.5825 29.2003 36.2838C27.5799 36.9852 25.8465 37.3349 24.0003 37.3332ZM24.0003 34.6665C25.2448 34.6665 26.4172 34.4723 27.5177 34.0838C28.6181 33.6954 29.6234 33.1452 30.5337 32.4332L26.1003 27.9998H29.867L32.4003 30.5332C33.1114 29.6221 33.667 28.6167 34.067 27.5172C34.467 26.4176 34.667 25.2452 34.667 23.9998C34.667 21.0443 33.6283 18.5274 31.551 16.4492C29.4737 14.3709 26.9568 13.3323 24.0003 13.3332C22.7559 13.3332 21.5839 13.5332 20.4843 13.9332C19.3848 14.3332 18.379 14.8887 17.467 15.5998L21.9003 19.9998H18.1337L15.6003 17.4665C14.8892 18.3776 14.3337 19.3834 13.9337 20.4838C13.5337 21.5843 13.3337 22.7563 13.3337 23.9998C13.3337 26.9554 14.3728 29.4723 16.451 31.5505C18.5292 33.6287 21.0457 34.6674 24.0003 34.6665ZM14.667 26.6665L16.667 23.9998L14.667 21.3332H16.667L17.667 22.6665L18.667 21.3332H20.667L18.667 23.9998L20.667 26.6665H18.667L17.667 25.3332L16.667 26.6665H14.667ZM21.0003 26.6665L23.0003 23.9998L21.0003 21.3332H23.0003L24.0003 22.6665L25.0003 21.3332H27.0003L25.0003 23.9998L27.0003 26.6665H25.0003L24.0003 25.3332L23.0003 26.6665H21.0003ZM27.3337 26.6665L29.3337 23.9998L27.3337 21.3332H29.3337L30.3337 22.6665L31.3337 21.3332H33.3337L31.3337 23.9998L33.3337 26.6665H31.3337L30.3337 25.3332L29.3337 26.6665H27.3337Z" fill="#007C4D"/>
</svg>
