<svg width="48" height="48" viewBox="0 0 48 48" fill="none" xmlns="http://www.w3.org/2000/svg">
<circle cx="24" cy="24" r="24" fill="#EDFFEE"/>
<g clip-path="url(#clip0_1159_6215)">
<path d="M23.9241 7.74401C26.4201 7.74401 28.7961 8.31601 30.9268 9.33868C31.2614 9.48934 31.5974 9.66934 31.9308 9.85068L30.4694 11.144L28.2788 8.88801L24.5028 12.1987L22.2801 9.82001L15.3374 15.9907L19.7828 20.8373L18.0468 22.3413L22.4334 27.188L20.6974 28.692L26.9694 35.5853L30.6828 32.2133L33.9108 35.8267C33.2708 36.308 32.5708 36.7907 31.8108 37.212C29.4106 38.5556 26.7054 39.2599 23.9548 39.2573C15.1548 39.2573 8.0001 32.184 8.0001 23.4867C7.96943 14.8467 15.1254 7.74268 23.9241 7.74268M21.0001 22.5213L24.8068 19.1507L28.2174 22.912L24.4108 26.284L21.0001 22.5213ZM23.7108 29.0227L27.4868 25.6227L30.9268 29.384L27.1201 32.756L23.7108 29.0227ZM18.2934 16.1133L22.0988 12.7413L25.5081 16.504L21.7028 19.8747L18.2934 16.1133ZM25.2641 14.3067L28.0961 11.7787L30.6548 14.5773L27.8228 17.136L25.2641 14.3067ZM30.3201 25.8947L33.1508 23.3667L35.7081 26.1947L32.8761 28.7253L30.3201 25.8947ZM32.8161 31.584L35.6481 29.0547L38.2041 31.8547L35.3734 34.412L32.8161 31.584ZM33.9734 18.58L35.8601 16.8947L37.5654 18.7613L35.6774 20.4467L33.9734 18.58ZM31.5374 13.012L33.4254 11.2973L35.1321 13.1933L33.2414 14.8787L31.5374 13.012ZM36.3774 24.1493L38.2654 22.464L40.0014 24.3307L38.0841 26.016L36.3774 24.1493ZM27.8841 19.9653L30.7161 17.4373L33.2734 20.236L30.4414 22.7653L27.8841 19.9653Z" fill="#007C4D"/>
</g>
<defs>
<clipPath id="clip0_1159_6215">
<rect width="32" height="32" fill="white" transform="translate(8 7.5)"/>
</clipPath>
</defs>
</svg>
