<svg width="22" height="22" viewBox="0 0 22 22" fill="none" xmlns="http://www.w3.org/2000/svg">
<path d="M12.0156 16.2813C12.0156 16.4821 11.9561 16.6785 11.8445 16.8455C11.7329 17.0125 11.5742 17.1427 11.3887 17.2196C11.2031 17.2964 10.9989 17.3165 10.8019 17.2774C10.6049 17.2382 10.4239 17.1414 10.2818 16.9994C10.1398 16.8574 10.0431 16.6764 10.0039 16.4794C9.96471 16.2824 9.98482 16.0782 10.0617 15.8926C10.1386 15.707 10.2687 15.5484 10.4358 15.4368C10.6028 15.3252 10.7991 15.2656 11 15.2656C11.2694 15.2656 11.5277 15.3726 11.7182 15.5631C11.9086 15.7536 12.0156 16.0119 12.0156 16.2813ZM11 5.51563C8.86719 5.51563 7.14063 7.06445 7.14063 8.96875V9.375C7.14063 9.53662 7.20483 9.69161 7.31911 9.80589C7.43339 9.92017 7.58839 9.98438 7.75001 9.98438C7.91162 9.98438 8.06662 9.92017 8.1809 9.80589C8.29518 9.69161 8.35938 9.53662 8.35938 9.375V8.96875C8.35938 7.7368 9.5436 6.73438 11 6.73438C12.4564 6.73438 13.6406 7.7368 13.6406 8.96875C13.6406 10.2007 12.4564 11.2031 11 11.2031C10.8384 11.2031 10.6834 11.2673 10.5691 11.3816C10.4548 11.4959 10.3906 11.6509 10.3906 11.8125V12.625C10.3906 12.7866 10.4548 12.9416 10.5691 13.0559C10.6834 13.1702 10.8384 13.2344 11 13.2344C11.1616 13.2344 11.3166 13.1702 11.4309 13.0559C11.5452 12.9416 11.6094 12.7866 11.6094 12.625V12.3792C13.4487 12.1172 14.8594 10.6872 14.8594 8.96875C14.8594 7.06445 13.1328 5.51563 11 5.51563ZM21.3594 11C21.3594 13.0489 20.7518 15.0518 19.6135 16.7554C18.4752 18.459 16.8573 19.7867 14.9644 20.5708C13.0714 21.3549 10.9885 21.56 8.97899 21.1603C6.96947 20.7606 5.12361 19.774 3.67482 18.3252C2.22604 16.8764 1.2394 15.0305 0.839682 13.021C0.439963 11.0115 0.645113 8.92857 1.42919 7.03564C2.21327 5.14271 3.54105 3.5248 5.24464 2.38649C6.94824 1.24819 8.95111 0.640625 11 0.640625C13.7465 0.64385 16.3796 1.73632 18.3216 3.67838C20.2637 5.62044 21.3562 8.25351 21.3594 11ZM20.1406 11C20.1406 9.19216 19.6045 7.42491 18.6002 5.92174C17.5958 4.41857 16.1682 3.247 14.498 2.55516C12.8277 1.86333 10.9899 1.68232 9.21676 2.03501C7.44365 2.3877 5.81495 3.25826 4.53661 4.5366C3.25827 5.81494 2.38771 7.44365 2.03501 9.21675C1.68232 10.9899 1.86334 12.8277 2.55517 14.498C3.247 16.1682 4.41858 17.5958 5.92175 18.6002C7.42491 19.6045 9.19216 20.1406 11 20.1406C13.4234 20.1379 15.7468 19.174 17.4604 17.4604C19.1741 15.7468 20.1379 13.4234 20.1406 11Z" fill="black"/>
</svg>
