<svg width="20" height="21" viewBox="0 0 20 21" fill="none" xmlns="http://www.w3.org/2000/svg">
<path d="M17.7642 6.45084L17.3529 5.737C17.0418 5.19714 16.8863 4.92721 16.6217 4.81958C16.357 4.71194 16.0577 4.79687 15.4591 4.96674L14.4422 5.25316C14.0601 5.34129 13.6591 5.29129 13.3101 5.112L13.0294 4.95002C12.7302 4.75837 12.5 4.47579 12.3726 4.14363L12.0943 3.31247C11.9113 2.76246 11.8198 2.48745 11.602 2.33015C11.3842 2.17285 11.0949 2.17285 10.5163 2.17285H9.58729C9.00866 2.17285 8.71934 2.17285 8.50153 2.33015C8.28372 2.48745 8.19223 2.76246 8.00925 3.31247L7.73095 4.14363C7.60355 4.47579 7.37338 4.75837 7.07415 4.95002L6.79341 5.112C6.44446 5.29129 6.0435 5.34129 5.66133 5.25316L4.64446 4.96674C4.04585 4.79687 3.74655 4.71194 3.4819 4.81958C3.21725 4.92721 3.06171 5.19714 2.75064 5.737L2.33931 6.45084C2.04772 6.95688 1.90193 7.2099 1.93022 7.47925C1.95852 7.7486 2.1537 7.96566 2.54406 8.39977L3.40326 9.36036C3.61326 9.62621 3.76235 10.0895 3.76235 10.506C3.76235 10.9229 3.61331 11.386 3.40328 11.6519L2.54406 12.6125C2.1537 13.0466 1.95852 13.2637 1.93022 13.5331C1.90193 13.8024 2.04773 14.0554 2.33931 14.5615L2.75062 15.2753C3.0617 15.8151 3.21725 16.0851 3.4819 16.1927C3.74655 16.3004 4.04586 16.2154 4.64448 16.0455L5.66129 15.7591C6.04353 15.671 6.44456 15.721 6.79356 15.9003L7.07426 16.0623C7.37343 16.254 7.60354 16.5365 7.73092 16.8687L8.00925 17.6999C8.19223 18.2499 8.28372 18.5249 8.50153 18.6822C8.71934 18.8395 9.00866 18.8395 9.58729 18.8395H10.5163C11.0949 18.8395 11.3842 18.8395 11.602 18.6822C11.8198 18.5249 11.9113 18.2499 12.0943 17.6999L12.3726 16.8687C12.5 16.5365 12.7301 16.254 13.0293 16.0623L13.31 15.9003C13.659 15.721 14.06 15.671 14.4423 15.7591L15.4591 16.0455C16.0577 16.2154 16.357 16.3004 16.6217 16.1927C16.8863 16.0851 17.0419 15.8151 17.3529 15.2753L17.3529 15.2753L17.7642 14.5615C18.0558 14.0554 18.2016 13.8024 18.1733 13.5331C18.145 13.2637 17.9499 13.0466 17.5595 12.6125L16.7003 11.6519C16.4903 11.386 16.3412 10.9229 16.3412 10.506C16.3412 10.0895 16.4903 9.62621 16.7003 9.36036L17.5595 8.39977C17.9499 7.96566 18.145 7.7486 18.1733 7.47925C18.2016 7.2099 18.0558 6.95688 17.7642 6.45084Z" stroke="#828890" stroke-width="1.25" stroke-linecap="round"/>
<path d="M12.9329 10.4997C12.9329 12.1105 11.6271 13.4163 10.0163 13.4163C8.40545 13.4163 7.09961 12.1105 7.09961 10.4997C7.09961 8.88884 8.40545 7.58301 10.0163 7.58301C11.6271 7.58301 12.9329 8.88884 12.9329 10.4997Z" stroke="#828890" stroke-width="1.25"/>
</svg>
