<svg width="17" height="18" viewBox="0 0 17 18" fill="none" xmlns="http://www.w3.org/2000/svg">
<path d="M6.38194 15.5255C6.24736 15.5255 6.11277 15.4759 6.00652 15.3697L2.45777 11.8209C2.25236 11.6155 2.25236 11.2755 2.45777 11.0701C2.66319 10.8647 3.00319 10.8647 3.20861 11.0701L6.75736 14.6188C6.96277 14.8242 6.96277 15.1642 6.75736 15.3697C6.65111 15.4688 6.51652 15.5255 6.38194 15.5255Z" fill="#181818"/>
<path d="M6.38184 15.526C6.09142 15.526 5.85059 15.2852 5.85059 14.9948V2.95312C5.85059 2.66271 6.09142 2.42188 6.38184 2.42188C6.67225 2.42188 6.91309 2.66271 6.91309 2.95312V14.9948C6.91309 15.2852 6.67225 15.526 6.38184 15.526Z" fill="#181818"/>
<path d="M14.173 7.03233C14.0384 7.03233 13.9038 6.98275 13.7975 6.8765L10.2488 3.32775C10.0434 3.12233 10.0434 2.78233 10.2488 2.57691C10.4542 2.3715 10.7942 2.3715 10.9996 2.57691L14.5484 6.12566C14.7538 6.33108 14.7538 6.67108 14.5484 6.8765C14.4421 6.98275 14.3075 7.03233 14.173 7.03233Z" fill="#181818"/>
<path d="M10.6182 15.526C10.3277 15.526 10.0869 15.2852 10.0869 14.9948V2.95312C10.0869 2.66271 10.3277 2.42188 10.6182 2.42188C10.9086 2.42188 11.1494 2.66271 11.1494 2.95312V14.9948C11.1494 15.2852 10.9157 15.526 10.6182 15.526Z" fill="#181818"/>
</svg>
