<svg width="48" height="48" viewBox="0 0 48 48" fill="none" xmlns="http://www.w3.org/2000/svg">
<circle cx="24" cy="24" r="24" fill="#EDFFEE"/>
<path d="M10.667 23.5V20.8333H14.667V23.5H10.667ZM15.2003 30.9L13.3337 28.9667L16.1337 26.1667L18.067 28.0333L15.2003 30.9ZM16.1337 18.1667L13.3337 15.3667L15.2003 13.4333L18.067 16.3L16.1337 18.1667ZM32.0003 34.1667L25.667 27.8333L24.0003 32.8333L20.0003 19.5L33.3337 23.5L28.4003 25.2333L34.667 31.5L32.0003 34.1667ZM21.3337 15.5V11.5H24.0003V15.5H21.3337ZM29.2003 18.1667L27.267 16.3L30.1337 13.4333L32.0003 15.3L29.2003 18.1667Z" fill="#007C4D"/>
</svg>
