<svg width="21" height="20" viewBox="0 0 21 20" fill="none" xmlns="http://www.w3.org/2000/svg">
<path fill-rule="evenodd" clip-rule="evenodd" d="M10.8564 7.0127L17.7274 5.02051L16.0171 11.9671L13.8837 9.91895L10.4423 13.5038C10.3254 13.6255 10.164 13.6943 9.99533 13.6943C9.82663 13.6943 9.66522 13.6255 9.54839 13.5038L7.02148 10.8716L3.30502 14.7429C3.06805 14.9897 2.67586 14.9977 2.42902 14.7607C2.18218 14.5238 2.17418 14.1316 2.41114 13.8847L6.57454 9.54787C6.69137 9.42617 6.85278 9.35738 7.02148 9.35738C7.19018 9.35738 7.35158 9.42617 7.46841 9.54787L9.99533 12.1801L12.9898 9.06082L10.8564 7.0127Z" fill="#1C1C1C"/>
</svg>
