<svg width="20" height="21" viewBox="0 0 20 21" fill="none" xmlns="http://www.w3.org/2000/svg">
<path d="M10.1004 11.7747C10.0837 11.7747 10.0587 11.7747 10.0421 11.7747C10.0171 11.7747 9.98372 11.7747 9.95872 11.7747C8.06706 11.7164 6.65039 10.2414 6.65039 8.42474C6.65039 6.57474 8.15872 5.06641 10.0087 5.06641C11.8587 5.06641 13.3671 6.57474 13.3671 8.42474C13.3587 10.2497 11.9337 11.7164 10.1254 11.7747C10.1087 11.7747 10.1087 11.7747 10.1004 11.7747ZM10.0004 6.30807C8.83372 6.30807 7.89206 7.25807 7.89206 8.41641C7.89206 9.55807 8.78372 10.4831 9.91706 10.5247C9.94206 10.5164 10.0254 10.5164 10.1087 10.5247C11.2254 10.4664 12.1004 9.54974 12.1087 8.41641C12.1087 7.25807 11.1671 6.30807 10.0004 6.30807Z" fill="#828890"/>
<path d="M10.001 19.4586C7.75934 19.4586 5.61767 18.6253 3.95934 17.1086C3.80934 16.9753 3.74267 16.7753 3.75934 16.5836C3.86767 15.5919 4.48434 14.6669 5.50934 13.9836C7.99267 12.3336 12.0177 12.3336 14.4927 13.9836C15.5177 14.6753 16.1343 15.5919 16.2427 16.5836C16.2677 16.7836 16.1927 16.9753 16.0427 17.1086C14.3843 18.6253 12.2427 19.4586 10.001 19.4586ZM5.06767 16.4169C6.451 17.5753 8.19267 18.2086 10.001 18.2086C11.8093 18.2086 13.551 17.5753 14.9343 16.4169C14.7843 15.9086 14.3843 15.4169 13.7927 15.0169C11.7427 13.6503 8.26767 13.6503 6.201 15.0169C5.60934 15.4169 5.21767 15.9086 5.06767 16.4169Z" fill="#828890"/>
<path d="M10.0003 19.4587C5.05866 19.4587 1.04199 15.442 1.04199 10.5003C1.04199 5.55866 5.05866 1.54199 10.0003 1.54199C14.942 1.54199 18.9587 5.55866 18.9587 10.5003C18.9587 15.442 14.942 19.4587 10.0003 19.4587ZM10.0003 2.79199C5.75033 2.79199 2.29199 6.25033 2.29199 10.5003C2.29199 14.7503 5.75033 18.2087 10.0003 18.2087C14.2503 18.2087 17.7087 14.7503 17.7087 10.5003C17.7087 6.25033 14.2503 2.79199 10.0003 2.79199Z" fill="#828890"/>
</svg>
