<svg width="61" height="31" viewBox="0 0 61 31" fill="none" xmlns="http://www.w3.org/2000/svg">
<rect x="0.25" y="0.25" width="60.5" height="30.5" rx="3.75" fill="white" stroke="#D9D9D9" stroke-width="0.5"/>
<g clip-path="url(#clip0_1282_2647)">
<path d="M30.332 13.4576C30.3074 15.4 32.0631 16.4839 33.3857 17.1284C34.7446 17.7897 35.201 18.2137 35.1956 18.8051C35.1855 19.71 34.1117 20.1094 33.1069 20.125C31.3539 20.1521 30.3346 19.6517 29.5242 19.2731L28.8927 22.2282C29.7057 22.6028 31.2112 22.9295 32.7722 22.9438C36.4367 22.9438 38.8341 21.135 38.8471 18.3304C38.8614 14.7711 33.9238 14.574 33.9575 12.9831C33.9692 12.5007 34.4295 11.9859 35.4381 11.855C35.9374 11.7889 37.3157 11.7383 38.8783 12.4578L39.4916 9.59881C38.6512 9.29284 37.5712 8.99985 36.2265 8.99985C32.7775 8.99985 30.3516 10.8333 30.332 13.4576ZM45.3847 9.24611C44.7156 9.24611 44.1517 9.63643 43.9 10.2354L38.6656 22.7338H42.3273L43.056 20.72H47.5306L47.9533 22.7338H51.1807L48.3644 9.24611H45.3847ZM45.897 12.8897L46.9537 17.9544H44.0596L45.897 12.8897ZM25.8923 9.24628L23.006 22.7337H26.4953L29.3804 9.24594L25.8923 9.24628ZM20.7304 9.24628L17.0985 18.4264L15.6293 10.6206C15.4569 9.74927 14.7762 9.24611 14.0202 9.24611H8.08316L8 9.63777C9.21884 9.90226 10.6037 10.3288 11.4427 10.7853C11.9561 11.0641 12.1025 11.3078 12.2712 11.9704L15.0538 22.7338H18.7412L24.3945 9.24611L20.7304 9.24628Z" fill="url(#paint0_linear_1282_2647)"/>
</g>
<defs>
<linearGradient id="paint0_linear_1282_2647" x1="1993.19" y1="50.9155" x2="2033.55" y2="-1381.15" gradientUnits="userSpaceOnUse">
<stop stop-color="#222357"/>
<stop offset="1" stop-color="#254AA5"/>
</linearGradient>
<clipPath id="clip0_1282_2647">
<rect width="43.1807" height="14" fill="white" transform="translate(8 9)"/>
</clipPath>
</defs>
</svg>
